# xmcd
#
# Track frame offsets:
#	150
#	19460
#	37229
#	58803
#	79319
#	103654
#	119717
#	137704
#	149017
#	162420
#
# Disc length: 2369 seconds
# Revision: 0
# Processed by: cddbd v1.5.2PL0 Copyright (c) Steve Scherf et al.
# Submitted via: dBpowerAMP V12.0
#
DISCID=a0093f0a
DTITLE=Vernon Garrett featuring Ms Sheila G - Don't Fall In Love With Me
DYEAR=2011
DGENRE=Blues
TTITLE0=Too late baby
TTITLE1=Your the reason I'm singing this song
TTITLE2=Try you tonight
TTITLE3=Lies, Lies, Lies
TTITLE4=I'm glad your mine
TTITLE5=Let try again
TTITLE6=You choose me to be your man
TTITLE7=Gonna help you to pack your bags
TTITLE8=Don't fall in love with me
TTITLE9=Got to get over to my baby place
EXTD=
EXTT0=
EXTT1=
EXTT2=
EXTT3=
EXTT4=
EXTT5=
EXTT6=
EXTT7=
EXTT8=
EXTT9=
PLAYORDER=
